<mxfile host="app.diagrams.net" modified="2024-05-14T09:49:57.618Z" agent="Mozilla/5.0 (Macintosh; Intel Mac OS X 10_15_7) AppleWebKit/537.36 (KHTML, like Gecko) Chrome/124.0.0.0 Safari/537.36 Edg/124.0.0.0" version="24.4.0" etag="HSurDUTRnCtIHVLRX2Ne" type="github">
  <diagram name="Page-1" id="wTzp9I8S2ublwvXh2Wqn">
    <mxGraphModel>
      <root>
        <mxCell id="0" />
        <mxCell id="1" parent="0" />
      </root>
    </mxGraphModel>
  </diagram>
</mxfile>
